[{"url":"https://api.github.com/repos/avinashpaliwal/Super-SloMo/issues/comments/450675707","html_url":"https://github.com/avinashpaliwal/Super-SloMo/issues/7#issuecomment-450675707","issue_url":"https://api.github.com/repos/avinashpaliwal/Super-SloMo/issues/7","id":450675707,"node_id":"MDEyOklzc3VlQ29tbWVudDQ1MDY3NTcwNw==","user":{"login":"avinashpaliwal","id":43282710,"node_id":"MDQ6VXNlcjQzMjgyNzEw","avatar_url":"https://avatars.githubusercontent.com/u/43282710?v=4","gravatar_id":"","url":"https://api.github.com/users/avinashpaliwal","html_url":"https://github.com/avinashpaliwal","followers_url":"https://api.github.com/users/avinashpaliwal/followers","following_url":"https://api.github.com/users/avinashpaliwal/following{/other_user}","gists_url":"https://api.github.com/users/avinashpaliwal/gists{/gist_id}","starred_url":"https://api.github.com/users/avinashpaliwal/starred{/owner}{/repo}","subscriptions_url":"https://api.github.com/users/avinashpaliwal/subscriptions","organizations_url":"https://api.github.com/users/avinashpaliwal/orgs","repos_url":"https://api.github.com/users/avinashpaliwal/repos","events_url":"https://api.github.com/users/avinashpaliwal/events{/privacy}","received_events_url":"https://api.github.com/users/avinashpaliwal/received_events","type":"User","site_admin":false},"created_at":"2018-12-31T18:05:32Z","updated_at":"2018-12-31T18:06:00Z","author_association":"OWNER","body":"That is weird. The channel wise mean is subtracted from the frames before passing them as input and added back to the output. Maybe something went wrong with that. Can you post your output after running the script. Also mention the pytorch version you have installed.","reactions":{"url":"https://api.github.com/repos/avinashpaliwal/Super-SloMo/issues/comments/450675707/reactions","total_count":0,"+1":0,"-1":0,"laugh":0,"hooray":0,"confused":0,"heart":0,"rocket":0,"eyes":0},"performed_via_github_app":null,"event":"commented","actor":{"login":"avinashpaliwal","id":43282710,"node_id":"MDQ6VXNlcjQzMjgyNzEw","avatar_url":"https://avatars.githubusercontent.com/u/43282710?v=4","gravatar_id":"","url":"https://api.github.com/users/avinashpaliwal","html_url":"https://github.com/avinashpaliwal","followers_url":"https://api.github.com/users/avinashpaliwal/followers","following_url":"https://api.github.com/users/avinashpaliwal/following{/other_user}","gists_url":"https://api.github.com/users/avinashpaliwal/gists{/gist_id}","starred_url":"https://api.github.com/users/avinashpaliwal/starred{/owner}{/repo}","subscriptions_url":"https://api.github.com/users/avinashpaliwal/subscriptions","organizations_url":"https://api.github.com/users/avinashpaliwal/orgs","repos_url":"https://api.github.com/users/avinashpaliwal/repos","events_url":"https://api.github.com/users/avinashpaliwal/events{/privacy}","received_events_url":"https://api.github.com/users/avinashpaliwal/received_events","type":"User","site_admin":false}},{"url":"https://api.github.com/repos/avinashpaliwal/Super-SloMo/issues/comments/450677099","html_url":"https://github.com/avinashpaliwal/Super-SloMo/issues/7#issuecomment-450677099","issue_url":"https://api.github.com/repos/avinashpaliwal/Super-SloMo/issues/7","id":450677099,"node_id":"MDEyOklzc3VlQ29tbWVudDQ1MDY3NzA5OQ==","user":{"login":"ybabs","id":29642663,"node_id":"MDQ6VXNlcjI5NjQyNjYz","avatar_url":"https://avatars.githubusercontent.com/u/29642663?v=4","gravatar_id":"","url":"https://api.github.com/users/ybabs","html_url":"https://github.com/ybabs","followers_url":"https://api.github.com/users/ybabs/followers","following_url":"https://api.github.com/users/ybabs/following{/other_user}","gists_url":"https://api.github.com/users/ybabs/gists{/gist_id}","starred_url":"https://api.github.com/users/ybabs/starred{/owner}{/repo}","subscriptions_url":"https://api.github.com/users/ybabs/subscriptions","organizations_url":"https://api.github.com/users/ybabs/orgs","repos_url":"https://api.github.com/users/ybabs/repos","events_url":"https://api.github.com/users/ybabs/events{/privacy}","received_events_url":"https://api.github.com/users/ybabs/received_events","type":"User","site_admin":false},"created_at":"2018-12-31T18:20:37Z","updated_at":"2018-12-31T18:20:37Z","author_association":"NONE","body":"pytorch version is 1.0.0\r\n\r\nThis is my output after running the script:\r\n\r\n```\r\nffmpeg version 4.0.3-1~18.04.york0 Copyright (c) 2000-2018 the FFmpeg developers\r\n  built with gcc 7 (Ubuntu 7.3.0-27ubuntu1~18.04)\r\n  configuration: --prefix=/usr --extra-version='1~18.04.york0' --toolchain=hardened --libdir=/usr/lib/x86_64-linux-gnu --incdir=/usr/include/x86_64-linux-gnu --arch=amd64 --enable-gpl --disable-stripping --enable-avresample --disable-filter=resample --enable-avisynth --enable-gnutls --enable-ladspa --enable-libaom --enable-libass --enable-libbluray --enable-libbs2b --enable-libcaca --enable-libcdio --enable-libcodec2 --enable-libflite --enable-libfontconfig --enable-libfreetype --enable-libfribidi --enable-libgme --enable-libgsm --enable-libjack --enable-libmp3lame --enable-libmysofa --enable-libopenjpeg --enable-libopenmpt --enable-libopus --enable-libpulse --enable-librsvg --enable-librubberband --enable-libshine --enable-libsnappy --enable-libsoxr --enable-libspeex --enable-libssh --enable-libtheora --enable-libtwolame --enable-libvidstab --enable-libvorbis --enable-libvpx --enable-libwavpack --enable-libwebp --enable-libx265 --enable-libxml2 --enable-libxvid --enable-libzmq --enable-libzvbi --enable-lv2 --enable-omx --enable-openal --enable-opengl --enable-sdl2 --enable-libdc1394 --enable-libdrm --enable-libiec61883 --enable-chromaprint --enable-frei0r --enable-libopencv --enable-libx264 --enable-shared\r\n  WARNING: library configuration mismatch\r\n  avcodec     configuration: --prefix=/usr --extra-version='1~18.04.york0' --toolchain=hardened --libdir=/usr/lib/x86_64-linux-gnu --incdir=/usr/include/x86_64-linux-gnu --arch=amd64 --enable-gpl --disable-stripping --enable-avresample --disable-filter=resample --enable-avisynth --enable-gnutls --enable-ladspa --enable-libaom --enable-libass --enable-libbluray --enable-libbs2b --enable-libcaca --enable-libcdio --enable-libcodec2 --enable-libflite --enable-libfontconfig --enable-libfreetype --enable-libfribidi --enable-libgme --enable-libgsm --enable-libjack --enable-libmp3lame --enable-libmysofa --enable-libopenjpeg --enable-libopenmpt --enable-libopus --enable-libpulse --enable-librsvg --enable-librubberband --enable-libshine --enable-libsnappy --enable-libsoxr --enable-libspeex --enable-libssh --enable-libtheora --enable-libtwolame --enable-libvidstab --enable-libvorbis --enable-libvpx --enable-libwavpack --enable-libwebp --enable-libx265 --enable-libxml2 --enable-libxvid --enable-libzmq --enable-libzvbi --enable-lv2 --enable-omx --enable-openal --enable-opengl --enable-sdl2 --enable-libdc1394 --enable-libdrm --enable-libiec61883 --enable-chromaprint --enable-frei0r --enable-libopencv --enable-libx264 --enable-shared --enable-version3 --disable-doc --disable-programs --enable-libopencore_amrnb --enable-libopencore_amrwb --enable-libtesseract --enable-libvo_amrwbenc\r\n  libavutil      56. 14.100 / 56. 14.100\r\n  libavcodec     58. 18.100 / 58. 18.100\r\n  libavformat    58. 12.100 / 58. 12.100\r\n  libavdevice    58.  3.100 / 58.  3.100\r\n  libavfilter     7. 16.100 /  7. 16.100\r\n  libavresample   4.  0.  0 /  4.  0.  0\r\n  libswscale      5.  1.100 /  5.  1.100\r\n  libswresample   3.  1.100 /  3.  1.100\r\n  libpostproc    55.  1.100 / 55.  1.100\r\nInput #0, mov,mp4,m4a,3gp,3g2,mj2, from '/home/homepc/Super-SloMo/input.mp4':\r\n  Metadata:\r\n    major_brand     : isom\r\n    minor_version   : 512\r\n    compatible_brands: isomiso2avc1mp41\r\n    encoder         : Lavf58.12.100\r\n  Duration: 00:00:01.24, start: 0.000000, bitrate: 948 kb/s\r\n    Stream #0:0(und): Video: h264 (High 4:4:4 Predictive) (avc1 / 0x31637661), yuv444p, 480x270 [SAR 1:1 DAR 16:9], 940 kb/s, 25 fps, 25 tbr, 12800 tbn, 50 tbc (default)\r\n    Metadata:\r\n      handler_name    : VideoHandler\r\nStream mapping:\r\n  Stream #0:0 -> #0:0 (h264 (native) -> mjpeg (native))\r\nPress [q] to stop, [?] for help\r\n[swscaler @ 0x55f8c904c7c0] deprecated pixel format used, make sure you did set range correctly\r\nOutput #0, image2, to 'tmpSuperSloMo/input/%06d.jpg':\r\n  Metadata:\r\n    major_brand     : isom\r\n    minor_version   : 512\r\n    compatible_brands: isomiso2avc1mp41\r\n    encoder         : Lavf58.12.100\r\n    Stream #0:0(und): Video: mjpeg, yuvj444p(pc), 480x270 [SAR 1:1 DAR 16:9], q=2-31, 200 kb/s, 25 fps, 25 tbn, 25 tbc (default)\r\n    Metadata:\r\n      handler_name    : VideoHandler\r\n      encoder         : Lavc58.18.100 mjpeg\r\n    Side data:\r\n      cpb: bitrate max/min/avg: 0/0/200000 buffer size: 0 vbv_delay: -1\r\nframe=   31 fps=0.0 q=2.0 Lsize=N/A time=00:00:01.24 bitrate=N/A speed=25.7x    \r\nvideo:1452kB audio:0kB subtitle:0kB other streams:0kB global headers:0kB muxing overhead: unknown\r\n/home/homepc/anaconda3/lib/python3.6/site-packages/torch/nn/functional.py:2423: UserWarning: Default upsampling behavior when mode=bilinear is changed to align_corners=False since 0.4.0. Please specify align_corners=True if the old behavior is desired. See the documentation of nn.Upsample for details.\r\n  \"See the documentation of nn.Upsample for details.\".format(mode))\r\n/home/homepc/anaconda3/lib/python3.6/site-packages/torch/nn/functional.py:1332: UserWarning: nn.functional.sigmoid is deprecated. Use torch.sigmoid instead.\r\n  warnings.warn(\"nn.functional.sigmoid is deprecated. Use torch.sigmoid instead.\")\r\n/usr/bin/ffmpeg -r 240.0 -i tmpSuperSloMo/output/%d.jpg -qscale:v 2 output.mp4\r\nffmpeg version 4.0.3-1~18.04.york0 Copyright (c) 2000-2018 the FFmpeg developers\r\n  built with gcc 7 (Ubuntu 7.3.0-27ubuntu1~18.04)\r\n  configuration: --prefix=/usr --extra-version='1~18.04.york0' --toolchain=hardened --libdir=/usr/lib/x86_64-linux-gnu --incdir=/usr/include/x86_64-linux-gnu --arch=amd64 --enable-gpl --disable-stripping --enable-avresample --disable-filter=resample --enable-avisynth --enable-gnutls --enable-ladspa --enable-libaom --enable-libass --enable-libbluray --enable-libbs2b --enable-libcaca --enable-libcdio --enable-libcodec2 --enable-libflite --enable-libfontconfig --enable-libfreetype --enable-libfribidi --enable-libgme --enable-libgsm --enable-libjack --enable-libmp3lame --enable-libmysofa --enable-libopenjpeg --enable-libopenmpt --enable-libopus --enable-libpulse --enable-librsvg --enable-librubberband --enable-libshine --enable-libsnappy --enable-libsoxr --enable-libspeex --enable-libssh --enable-libtheora --enable-libtwolame --enable-libvidstab --enable-libvorbis --enable-libvpx --enable-libwavpack --enable-libwebp --enable-libx265 --enable-libxml2 --enable-libxvid --enable-libzmq --enable-libzvbi --enable-lv2 --enable-omx --enable-openal --enable-opengl --enable-sdl2 --enable-libdc1394 --enable-libdrm --enable-libiec61883 --enable-chromaprint --enable-frei0r --enable-libopencv --enable-libx264 --enable-shared\r\n  WARNING: library configuration mismatch\r\n  avcodec     configuration: --prefix=/usr --extra-version='1~18.04.york0' --toolchain=hardened --libdir=/usr/lib/x86_64-linux-gnu --incdir=/usr/include/x86_64-linux-gnu --arch=amd64 --enable-gpl --disable-stripping --enable-avresample --disable-filter=resample --enable-avisynth --enable-gnutls --enable-ladspa --enable-libaom --enable-libass --enable-libbluray --enable-libbs2b --enable-libcaca --enable-libcdio --enable-libcodec2 --enable-libflite --enable-libfontconfig --enable-libfreetype --enable-libfribidi --enable-libgme --enable-libgsm --enable-libjack --enable-libmp3lame --enable-libmysofa --enable-libopenjpeg --enable-libopenmpt --enable-libopus --enable-libpulse --enable-librsvg --enable-librubberband --enable-libshine --enable-libsnappy --enable-libsoxr --enable-libspeex --enable-libssh --enable-libtheora --enable-libtwolame --enable-libvidstab --enable-libvorbis --enable-libvpx --enable-libwavpack --enable-libwebp --enable-libx265 --enable-libxml2 --enable-libxvid --enable-libzmq --enable-libzvbi --enable-lv2 --enable-omx --enable-openal --enable-opengl --enable-sdl2 --enable-libdc1394 --enable-libdrm --enable-libiec61883 --enable-chromaprint --enable-frei0r --enable-libopencv --enable-libx264 --enable-shared --enable-version3 --disable-doc --disable-programs --enable-libopencore_amrnb --enable-libopencore_amrwb --enable-libtesseract --enable-libvo_amrwbenc\r\n  libavutil      56. 14.100 / 56. 14.100\r\n  libavcodec     58. 18.100 / 58. 18.100\r\n  libavformat    58. 12.100 / 58. 12.100\r\n  libavdevice    58.  3.100 / 58.  3.100\r\n  libavfilter     7. 16.100 /  7. 16.100\r\n  libavresample   4.  0.  0 /  4.  0.  0\r\n  libswscale      5.  1.100 /  5.  1.100\r\n  libswresample   3.  1.100 /  3.  1.100\r\n  libpostproc    55.  1.100 / 55.  1.100\r\nInput #0, image2, from 'tmpSuperSloMo/output/%d.jpg':\r\n  Duration: 00:00:04.80, start: 0.000000, bitrate: N/A\r\n    Stream #0:0: Video: mjpeg, yuvj420p(pc, bt470bg/unknown/unknown), 480x270 [SAR 1:1 DAR 16:9], 25 fps, 25 tbr, 25 tbn, 25 tbc\r\nStream mapping:\r\n  Stream #0:0 -> #0:0 (mjpeg (native) -> h264 (libx264))\r\nPress [q] to stop, [?] for help\r\n[libx264 @ 0x556ca73d8000] -qscale is ignored, -crf is recommended.\r\n[libx264 @ 0x556ca73d8000] using SAR=1/1\r\n[libx264 @ 0x556ca73d8000] using cpu capabilities: MMX2 SSE2Fast SSSE3 SSE4.2 AVX FMA3 BMI2 AVX2\r\n[libx264 @ 0x556ca73d8000] profile High, level 3.2\r\n[libx264 @ 0x556ca73d8000] 264 - core 155 r2917 0a84d98 - H.264/MPEG-4 AVC codec - Copyleft 2003-2018 - http://www.videolan.org/x264.html - options: cabac=1 ref=3 deblock=1:0:0 analyse=0x3:0x113 me=hex subme=7 psy=1 psy_rd=1.00:0.00 mixed_ref=1 me_range=16 chroma_me=1 trellis=1 8x8dct=1 cqm=0 deadzone=21,11 fast_pskip=1 chroma_qp_offset=-2 threads=8 lookahead_threads=1 sliced_threads=0 nr=0 decimate=1 interlaced=0 bluray_compat=0 constrained_intra=0 bframes=3 b_pyramid=2 b_adapt=1 b_bias=0 direct=1 weightb=1 open_gop=0 weightp=2 keyint=250 keyint_min=25 scenecut=40 intra_refresh=0 rc_lookahead=40 rc=crf mbtree=1 crf=23.0 qcomp=0.60 qpmin=0 qpmax=69 qpstep=4 ip_ratio=1.40 aq=1:1.00\r\nOutput #0, mp4, to 'output.mp4':\r\n  Metadata:\r\n    encoder         : Lavf58.12.100\r\n    Stream #0:0: Video: h264 (libx264) (avc1 / 0x31637661), yuvj420p(pc), 480x270 [SAR 1:1 DAR 16:9], q=-1--1, 240 fps, 15360 tbn, 240 tbc\r\n    Metadata:\r\n      encoder         : Lavc58.18.100 libx264\r\n    Side data:\r\n      cpb: bitrate max/min/avg: 0/0/0 buffer size: 0 vbv_delay: -1\r\n[swscaler @ 0x556ca7936280] deprecated pixel format used, make sure you did set range correctly\r\nPast duration 8.999992 too large\r\n    Last message repeated 3 times\r\n[swscaler @ 0x556ca7936280] deprecated pixel format used, make sure you did set range correctly\r\nPast duration 8.999992 too large\r\n    Last message repeated 3 times\r\n[swscaler @ 0x556ca7936280] deprecated pixel format used, make sure you did set range correctly\r\nPast duration 8.999992 too large\r\n    Last message repeated 3 times\r\n[swscaler @ 0x556ca7936280] deprecated pixel format used, make sure you did set range correctly\r\nPast duration 8.999992 too large\r\n    Last message repeated 3 times\r\n[swscaler @ 0x556ca7936280] deprecated pixel format used, make sure you did set range correctly\r\nPast duration 8.999992 too large\r\n    Last message repeated 3 times\r\n[swscaler @ 0x556ca7936280] deprecated pixel format used, make sure you did set range correctly\r\nPast duration 8.999992 too large\r\n    Last message repeated 3 times\r\n[swscaler @ 0x556ca7936280] deprecated pixel format used, make sure you did set range correctly\r\nPast duration 8.999992 too large\r\n    Last message repeated 3 times\r\n[swscaler @ 0x556ca7936280] deprecated pixel format used, make sure you did set range correctly\r\nPast duration 8.999992 too large\r\n    Last message repeated 3 times\r\n[swscaler @ 0x556ca7936280] deprecated pixel format used, make sure you did set range correctly\r\nPast duration 8.999992 too large\r\n    Last message repeated 3 times\r\n[swscaler @ 0x556ca7936280] deprecated pixel format used, make sure you did set range correctly\r\nPast duration 8.999992 too large\r\n    Last message repeated 3 times\r\n[swscaler @ 0x556ca7936280] deprecated pixel format used, make sure you did set range correctly\r\nPast duration 8.999992 too large\r\n    Last message repeated 3 times\r\n[swscaler @ 0x556ca7936280] deprecated pixel format used, make sure you did set range correctly\r\nPast duration 8.999992 too large\r\n    Last message repeated 3 times\r\n[swscaler @ 0x556ca7936280] deprecated pixel format used, make sure you did set range correctly\r\nPast duration 8.999992 too large\r\n    Last message repeated 3 times\r\n[swscaler @ 0x556ca7936280] deprecated pixel format used, make sure you did set range correctly\r\nPast duration 8.999992 too large\r\n    Last message repeated 3 times\r\n[swscaler @ 0x556ca7936280] deprecated pixel format used, make sure you did set range correctly\r\nPast duration 8.999992 too large\r\n    Last message repeated 3 times\r\n[swscaler @ 0x556ca7936280] deprecated pixel format used, make sure you did set range correctly\r\nPast duration 8.999992 too large\r\n    Last message repeated 3 times\r\n[swscaler @ 0x556ca7936280] deprecated pixel format used, make sure you did set range correctly\r\nPast duration 8.999992 too large\r\n    Last message repeated 3 times\r\n[swscaler @ 0x556ca7936280] deprecated pixel format used, make sure you did set range correctly\r\nPast duration 8.999992 too large\r\n    Last message repeated 3 times\r\n[swscaler @ 0x556ca7936280] deprecated pixel format used, make sure you did set range correctly\r\nPast duration 8.999992 too large\r\n    Last message repeated 3 times\r\n[swscaler @ 0x556ca7936280] deprecated pixel format used, make sure you did set range correctly\r\nPast duration 8.999992 too large\r\n    Last message repeated 3 times\r\n[swscaler @ 0x556ca7936280] deprecated pixel format used, make sure you did set range correctly\r\nPast duration 8.999992 too large\r\n    Last message repeated 3 times\r\n[swscaler @ 0x556ca7936280] deprecated pixel format used, make sure you did set range correctly\r\nPast duration 8.999992 too large\r\n    Last message repeated 3 times\r\n[swscaler @ 0x556ca7936280] deprecated pixel format used, make sure you did set range correctly\r\nPast duration 8.999992 too large\r\n    Last message repeated 3 times\r\n[swscaler @ 0x556ca7936280] deprecated pixel format used, make sure you did set range correctly\r\nPast duration 8.999992 too large\r\n    Last message repeated 3 times\r\n[swscaler @ 0x556ca7936280] deprecated pixel format used, make sure you did set range correctly\r\nPast duration 8.999992 too large\r\n    Last message repeated 3 times\r\n[swscaler @ 0x556ca7936280] deprecated pixel format used, make sure you did set range correctly\r\nPast duration 8.999992 too large\r\n    Last message repeated 3 times\r\n[swscaler @ 0x556ca7936280] deprecated pixel format used, make sure you did set range correctly\r\nPast duration 8.999992 too large\r\n    Last message repeated 3 times\r\n[swscaler @ 0x556ca7936280] deprecated pixel format used, make sure you did set range correctly\r\nPast duration 8.999992 too large\r\n    Last message repeated 3 times\r\n[swscaler @ 0x556ca7936280] deprecated pixel format used, make sure you did set range correctly\r\nPast duration 8.999992 too large\r\n    Last message repeated 3 times\r\n[swscaler @ 0x556ca7936280] deprecated pixel format used, make sure you did set range correctly\r\nPast duration 8.999992 too large\r\n    Last message repeated 2 times\r\nframe=  129 fps=0.0 q=-1.0 Lsize=     408kB time=00:00:00.52 bitrate=6368.6kbits/s dup=9 drop=0 speed=0.931x    \r\nvideo:406kB audio:0kB subtitle:0kB other streams:0kB global headers:0kB muxing overhead: 0.577492%\r\n[libx264 @ 0x556ca73d8000] frame I:1     Avg QP:27.57  size: 19262\r\n[libx264 @ 0x556ca73d8000] frame P:38    Avg QP:31.32  size:  3687\r\n[libx264 @ 0x556ca73d8000] frame B:90    Avg QP:34.64  size:  2839\r\n[libx264 @ 0x556ca73d8000] consecutive B-frames:  0.8% 18.6%  0.0% 80.6%\r\n[libx264 @ 0x556ca73d8000] mb I  I16..4:  0.4% 94.3%  5.3%\r\n[libx264 @ 0x556ca73d8000] mb P  I16..4:  0.4%  1.9%  1.4%  P16..4: 49.2% 20.6% 11.3%  0.0%  0.0%    skip:15.2%\r\n[libx264 @ 0x556ca73d8000] mb B  I16..4:  0.8%  3.3%  2.3%  B16..8: 18.8%  5.5%  2.1%  direct:34.0%  skip:33.3%  L0:80.0% L1:12.5% BI: 7.5%\r\n[libx264 @ 0x556ca73d8000] 8x8 transform intra:56.9% inter:69.6%\r\n[libx264 @ 0x556ca73d8000] coded y,uvDC,uvAC intra: 80.4% 49.8% 21.2% inter: 46.6% 11.3% 3.2%\r\n[libx264 @ 0x556ca73d8000] i16 v,h,dc,p: 29% 45%  6% 21%\r\n[libx264 @ 0x556ca73d8000] i8 v,h,dc,ddl,ddr,vr,hd,vl,hu: 20% 19% 20%  6%  5%  7%  6%  7%  9%\r\n[libx264 @ 0x556ca73d8000] i4 v,h,dc,ddl,ddr,vr,hd,vl,hu: 16% 35% 14%  6%  5%  6%  6%  5%  7%\r\n[libx264 @ 0x556ca73d8000] i8c dc,h,v,p: 75% 15%  9%  2%\r\n[libx264 @ 0x556ca73d8000] Weighted P-Frames: Y:55.3% UV:34.2%\r\n[libx264 @ 0x556ca73d8000] ref P L0: 53.4% 16.6%  3.5% 24.8%  1.6%\r\n[libx264 @ 0x556ca73d8000] ref B L0: 40.2% 59.7%  0.0%\r\n[libx264 @ 0x556ca73d8000] ref B L1: 55.3% 44.7%\r\n[libx264 @ 0x556ca73d8000] kb/s:6175.27\r\n\r\n```\r\n\r\n\r\n\r\n","reactions":{"url":"https://api.github.com/repos/avinashpaliwal/Super-SloMo/issues/comments/450677099/reactions","total_count":0,"+1":0,"-1":0,"laugh":0,"hooray":0,"confused":0,"heart":0,"rocket":0,"eyes":0},"performed_via_github_app":null,"event":"commented","actor":{"login":"ybabs","id":29642663,"node_id":"MDQ6VXNlcjI5NjQyNjYz","avatar_url":"https://avatars.githubusercontent.com/u/29642663?v=4","gravatar_id":"","url":"https://api.github.com/users/ybabs","html_url":"https://github.com/ybabs","followers_url":"https://api.github.com/users/ybabs/followers","following_url":"https://api.github.com/users/ybabs/following{/other_user}","gists_url":"https://api.github.com/users/ybabs/gists{/gist_id}","starred_url":"https://api.github.com/users/ybabs/starred{/owner}{/repo}","subscriptions_url":"https://api.github.com/users/ybabs/subscriptions","organizations_url":"https://api.github.com/users/ybabs/orgs","repos_url":"https://api.github.com/users/ybabs/repos","events_url":"https://api.github.com/users/ybabs/events{/privacy}","received_events_url":"https://api.github.com/users/ybabs/received_events","type":"User","site_admin":false}},{"url":"https://api.github.com/repos/avinashpaliwal/Super-SloMo/issues/comments/450685325","html_url":"https://github.com/avinashpaliwal/Super-SloMo/issues/7#issuecomment-450685325","issue_url":"https://api.github.com/repos/avinashpaliwal/Super-SloMo/issues/7","id":450685325,"node_id":"MDEyOklzc3VlQ29tbWVudDQ1MDY4NTMyNQ==","user":{"login":"avinashpaliwal","id":43282710,"node_id":"MDQ6VXNlcjQzMjgyNzEw","avatar_url":"https://avatars.githubusercontent.com/u/43282710?v=4","gravatar_id":"","url":"https://api.github.com/users/avinashpaliwal","html_url":"https://github.com/avinashpaliwal","followers_url":"https://api.github.com/users/avinashpaliwal/followers","following_url":"https://api.github.com/users/avinashpaliwal/following{/other_user}","gists_url":"https://api.github.com/users/avinashpaliwal/gists{/gist_id}","starred_url":"https://api.github.com/users/avinashpaliwal/starred{/owner}{/repo}","subscriptions_url":"https://api.github.com/users/avinashpaliwal/subscriptions","organizations_url":"https://api.github.com/users/avinashpaliwal/orgs","repos_url":"https://api.github.com/users/avinashpaliwal/repos","events_url":"https://api.github.com/users/avinashpaliwal/events{/privacy}","received_events_url":"https://api.github.com/users/avinashpaliwal/received_events","type":"User","site_admin":false},"created_at":"2018-12-31T19:56:24Z","updated_at":"2018-12-31T19:56:24Z","author_association":"OWNER","body":"I am getting the same issue when running on CPU. I am working on it.","reactions":{"url":"https://api.github.com/repos/avinashpaliwal/Super-SloMo/issues/comments/450685325/reactions","total_count":0,"+1":0,"-1":0,"laugh":0,"hooray":0,"confused":0,"heart":0,"rocket":0,"eyes":0},"performed_via_github_app":null,"event":"commented","actor":{"login":"avinashpaliwal","id":43282710,"node_id":"MDQ6VXNlcjQzMjgyNzEw","avatar_url":"https://avatars.githubusercontent.com/u/43282710?v=4","gravatar_id":"","url":"https://api.github.com/users/avinashpaliwal","html_url":"https://github.com/avinashpaliwal","followers_url":"https://api.github.com/users/avinashpaliwal/followers","following_url":"https://api.github.com/users/avinashpaliwal/following{/other_user}","gists_url":"https://api.github.com/users/avinashpaliwal/gists{/gist_id}","starred_url":"https://api.github.com/users/avinashpaliwal/starred{/owner}{/repo}","subscriptions_url":"https://api.github.com/users/avinashpaliwal/subscriptions","organizations_url":"https://api.github.com/users/avinashpaliwal/orgs","repos_url":"https://api.github.com/users/avinashpaliwal/repos","events_url":"https://api.github.com/users/avinashpaliwal/events{/privacy}","received_events_url":"https://api.github.com/users/avinashpaliwal/received_events","type":"User","site_admin":false}},{"id":2049214368,"node_id":"MDEzOkFzc2lnbmVkRXZlbnQyMDQ5MjE0MzY4","url":"https://api.github.com/repos/avinashpaliwal/Super-SloMo/issues/events/2049214368","actor":{"login":"avinashpaliwal","id":43282710,"node_id":"MDQ6VXNlcjQzMjgyNzEw","avatar_url":"https://avatars.githubusercontent.com/u/43282710?v=4","gravatar_id":"","url":"https://api.github.com/users/avinashpaliwal","html_url":"https://github.com/avinashpaliwal","followers_url":"https://api.github.com/users/avinashpaliwal/followers","following_url":"https://api.github.com/users/avinashpaliwal/following{/other_user}","gists_url":"https://api.github.com/users/avinashpaliwal/gists{/gist_id}","starred_url":"https://api.github.com/users/avinashpaliwal/starred{/owner}{/repo}","subscriptions_url":"https://api.github.com/users/avinashpaliwal/subscriptions","organizations_url":"https://api.github.com/users/avinashpaliwal/orgs","repos_url":"https://api.github.com/users/avinashpaliwal/repos","events_url":"https://api.github.com/users/avinashpaliwal/events{/privacy}","received_events_url":"https://api.github.com/users/avinashpaliwal/received_events","type":"User","site_admin":false},"event":"assigned","commit_id":null,"commit_url":null,"created_at":"2018-12-31T20:44:34Z","assignee":{"login":"avinashpaliwal","id":43282710,"node_id":"MDQ6VXNlcjQzMjgyNzEw","avatar_url":"https://avatars.githubusercontent.com/u/43282710?v=4","gravatar_id":"","url":"https://api.github.com/users/avinashpaliwal","html_url":"https://github.com/avinashpaliwal","followers_url":"https://api.github.com/users/avinashpaliwal/followers","following_url":"https://api.github.com/users/avinashpaliwal/following{/other_user}","gists_url":"https://api.github.com/users/avinashpaliwal/gists{/gist_id}","starred_url":"https://api.github.com/users/avinashpaliwal/starred{/owner}{/repo}","subscriptions_url":"https://api.github.com/users/avinashpaliwal/subscriptions","organizations_url":"https://api.github.com/users/avinashpaliwal/orgs","repos_url":"https://api.github.com/users/avinashpaliwal/repos","events_url":"https://api.github.com/users/avinashpaliwal/events{/privacy}","received_events_url":"https://api.github.com/users/avinashpaliwal/received_events","type":"User","site_admin":false},"performed_via_github_app":null},{"id":2049214416,"node_id":"MDEyOkxhYmVsZWRFdmVudDIwNDkyMTQ0MTY=","url":"https://api.github.com/repos/avinashpaliwal/Super-SloMo/issues/events/2049214416","actor":{"login":"avinashpaliwal","id":43282710,"node_id":"MDQ6VXNlcjQzMjgyNzEw","avatar_url":"https://avatars.githubusercontent.com/u/43282710?v=4","gravatar_id":"","url":"https://api.github.com/users/avinashpaliwal","html_url":"https://github.com/avinashpaliwal","followers_url":"https://api.github.com/users/avinashpaliwal/followers","following_url":"https://api.github.com/users/avinashpaliwal/following{/other_user}","gists_url":"https://api.github.com/users/avinashpaliwal/gists{/gist_id}","starred_url":"https://api.github.com/users/avinashpaliwal/starred{/owner}{/repo}","subscriptions_url":"https://api.github.com/users/avinashpaliwal/subscriptions","organizations_url":"https://api.github.com/users/avinashpaliwal/orgs","repos_url":"https://api.github.com/users/avinashpaliwal/repos","events_url":"https://api.github.com/users/avinashpaliwal/events{/privacy}","received_events_url":"https://api.github.com/users/avinashpaliwal/received_events","type":"User","site_admin":false},"event":"labeled","commit_id":null,"commit_url":null,"created_at":"2018-12-31T20:44:41Z","label":{"name":"bug","color":"d73a4a"},"performed_via_github_app":null},{"id":2049214449,"node_id":"MDE5OkFkZGVkVG9Qcm9qZWN0RXZlbnQyMDQ5MjE0NDQ5","url":"https://api.github.com/repos/avinashpaliwal/Super-SloMo/issues/events/2049214449","actor":{"login":"avinashpaliwal","id":43282710,"node_id":"MDQ6VXNlcjQzMjgyNzEw","avatar_url":"https://avatars.githubusercontent.com/u/43282710?v=4","gravatar_id":"","url":"https://api.github.com/users/avinashpaliwal","html_url":"https://github.com/avinashpaliwal","followers_url":"https://api.github.com/users/avinashpaliwal/followers","following_url":"https://api.github.com/users/avinashpaliwal/following{/other_user}","gists_url":"https://api.github.com/users/avinashpaliwal/gists{/gist_id}","starred_url":"https://api.github.com/users/avinashpaliwal/starred{/owner}{/repo}","subscriptions_url":"https://api.github.com/users/avinashpaliwal/subscriptions","organizations_url":"https://api.github.com/users/avinashpaliwal/orgs","repos_url":"https://api.github.com/users/avinashpaliwal/repos","events_url":"https://api.github.com/users/avinashpaliwal/events{/privacy}","received_events_url":"https://api.github.com/users/avinashpaliwal/received_events","type":"User","site_admin":false},"event":"added_to_project","commit_id":null,"commit_url":null,"created_at":"2018-12-31T20:44:45Z","project_card":{"id":16110413,"url":"https://api.github.com/projects/columns/cards/16110413","project_id":2032331,"project_url":"https://api.github.com/projects/2032331","column_name":"To do"},"performed_via_github_app":null},{"id":2049215744,"node_id":"MDI2Ok1vdmVkQ29sdW1uc0luUHJvamVjdEV2ZW50MjA0OTIxNTc0NA==","url":"https://api.github.com/repos/avinashpaliwal/Super-SloMo/issues/events/2049215744","actor":{"login":"avinashpaliwal","id":43282710,"node_id":"MDQ6VXNlcjQzMjgyNzEw","avatar_url":"https://avatars.githubusercontent.com/u/43282710?v=4","gravatar_id":"","url":"https://api.github.com/users/avinashpaliwal","html_url":"https://github.com/avinashpaliwal","followers_url":"https://api.github.com/users/avinashpaliwal/followers","following_url":"https://api.github.com/users/avinashpaliwal/following{/other_user}","gists_url":"https://api.github.com/users/avinashpaliwal/gists{/gist_id}","starred_url":"https://api.github.com/users/avinashpaliwal/starred{/owner}{/repo}","subscriptions_url":"https://api.github.com/users/avinashpaliwal/subscriptions","organizations_url":"https://api.github.com/users/avinashpaliwal/orgs","repos_url":"https://api.github.com/users/avinashpaliwal/repos","events_url":"https://api.github.com/users/avinashpaliwal/events{/privacy}","received_events_url":"https://api.github.com/users/avinashpaliwal/received_events","type":"User","site_admin":false},"event":"moved_columns_in_project","commit_id":null,"commit_url":null,"created_at":"2018-12-31T20:48:02Z","project_card":{"id":16110413,"url":"https://api.github.com/projects/columns/cards/16110413","project_id":2032331,"project_url":"https://api.github.com/projects/2032331","column_name":"In progress","previous_column_name":"To do"},"performed_via_github_app":null},{"id":2049222110,"node_id":"MDE1OlJlZmVyZW5jZWRFdmVudDIwNDkyMjIxMTA=","url":"https://api.github.com/repos/avinashpaliwal/Super-SloMo/issues/events/2049222110","actor":{"login":"avinashpaliwal","id":43282710,"node_id":"MDQ6VXNlcjQzMjgyNzEw","avatar_url":"https://avatars.githubusercontent.com/u/43282710?v=4","gravatar_id":"","url":"https://api.github.com/users/avinashpaliwal","html_url":"https://github.com/avinashpaliwal","followers_url":"https://api.github.com/users/avinashpaliwal/followers","following_url":"https://api.github.com/users/avinashpaliwal/following{/other_user}","gists_url":"https://api.github.com/users/avinashpaliwal/gists{/gist_id}","starred_url":"https://api.github.com/users/avinashpaliwal/starred{/owner}{/repo}","subscriptions_url":"https://api.github.com/users/avinashpaliwal/subscriptions","organizations_url":"https://api.github.com/users/avinashpaliwal/orgs","repos_url":"https://api.github.com/users/avinashpaliwal/repos","events_url":"https://api.github.com/users/avinashpaliwal/events{/privacy}","received_events_url":"https://api.github.com/users/avinashpaliwal/received_events","type":"User","site_admin":false},"event":"referenced","commit_id":"4af6602e34cea6a30e7e7cf56722aead8caa5e1d","commit_url":"https://api.github.com/repos/avinashpaliwal/Super-SloMo/commits/4af6602e34cea6a30e7e7cf56722aead8caa5e1d","created_at":"2018-12-31T21:02:34Z","performed_via_github_app":null},{"url":"https://api.github.com/repos/avinashpaliwal/Super-SloMo/issues/comments/450690269","html_url":"https://github.com/avinashpaliwal/Super-SloMo/issues/7#issuecomment-450690269","issue_url":"https://api.github.com/repos/avinashpaliwal/Super-SloMo/issues/7","id":450690269,"node_id":"MDEyOklzc3VlQ29tbWVudDQ1MDY5MDI2OQ==","user":{"login":"avinashpaliwal","id":43282710,"node_id":"MDQ6VXNlcjQzMjgyNzEw","avatar_url":"https://avatars.githubusercontent.com/u/43282710?v=4","gravatar_id":"","url":"https://api.github.com/users/avinashpaliwal","html_url":"https://github.com/avinashpaliwal","followers_url":"https://api.github.com/users/avinashpaliwal/followers","following_url":"https://api.github.com/users/avinashpaliwal/following{/other_user}","gists_url":"https://api.github.com/users/avinashpaliwal/gists{/gist_id}","starred_url":"https://api.github.com/users/avinashpaliwal/starred{/owner}{/repo}","subscriptions_url":"https://api.github.com/users/avinashpaliwal/subscriptions","organizations_url":"https://api.github.com/users/avinashpaliwal/orgs","repos_url":"https://api.github.com/users/avinashpaliwal/repos","events_url":"https://api.github.com/users/avinashpaliwal/events{/privacy}","received_events_url":"https://api.github.com/users/avinashpaliwal/received_events","type":"User","site_admin":false},"created_at":"2018-12-31T21:03:16Z","updated_at":"2018-12-31T21:03:16Z","author_association":"OWNER","body":"I have added a temporary fix to the script. You can try running it now.","reactions":{"url":"https://api.github.com/repos/avinashpaliwal/Super-SloMo/issues/comments/450690269/reactions","total_count":0,"+1":0,"-1":0,"laugh":0,"hooray":0,"confused":0,"heart":0,"rocket":0,"eyes":0},"performed_via_github_app":null,"event":"commented","actor":{"login":"avinashpaliwal","id":43282710,"node_id":"MDQ6VXNlcjQzMjgyNzEw","avatar_url":"https://avatars.githubusercontent.com/u/43282710?v=4","gravatar_id":"","url":"https://api.github.com/users/avinashpaliwal","html_url":"https://github.com/avinashpaliwal","followers_url":"https://api.github.com/users/avinashpaliwal/followers","following_url":"https://api.github.com/users/avinashpaliwal/following{/other_user}","gists_url":"https://api.github.com/users/avinashpaliwal/gists{/gist_id}","starred_url":"https://api.github.com/users/avinashpaliwal/starred{/owner}{/repo}","subscriptions_url":"https://api.github.com/users/avinashpaliwal/subscriptions","organizations_url":"https://api.github.com/users/avinashpaliwal/orgs","repos_url":"https://api.github.com/users/avinashpaliwal/repos","events_url":"https://api.github.com/users/avinashpaliwal/events{/privacy}","received_events_url":"https://api.github.com/users/avinashpaliwal/received_events","type":"User","site_admin":false}},{"url":"https://api.github.com/repos/avinashpaliwal/Super-SloMo/issues/comments/450703790","html_url":"https://github.com/avinashpaliwal/Super-SloMo/issues/7#issuecomment-450703790","issue_url":"https://api.github.com/repos/avinashpaliwal/Super-SloMo/issues/7","id":450703790,"node_id":"MDEyOklzc3VlQ29tbWVudDQ1MDcwMzc5MA==","user":{"login":"ybabs","id":29642663,"node_id":"MDQ6VXNlcjI5NjQyNjYz","avatar_url":"https://avatars.githubusercontent.com/u/29642663?v=4","gravatar_id":"","url":"https://api.github.com/users/ybabs","html_url":"https://github.com/ybabs","followers_url":"https://api.github.com/users/ybabs/followers","following_url":"https://api.github.com/users/ybabs/following{/other_user}","gists_url":"https://api.github.com/users/ybabs/gists{/gist_id}","starred_url":"https://api.github.com/users/ybabs/starred{/owner}{/repo}","subscriptions_url":"https://api.github.com/users/ybabs/subscriptions","organizations_url":"https://api.github.com/users/ybabs/orgs","repos_url":"https://api.github.com/users/ybabs/repos","events_url":"https://api.github.com/users/ybabs/events{/privacy}","received_events_url":"https://api.github.com/users/ybabs/received_events","type":"User","site_admin":false},"created_at":"2019-01-01T01:29:24Z","updated_at":"2019-01-01T01:29:33Z","author_association":"NONE","body":"That fixed it thanks.","reactions":{"url":"https://api.github.com/repos/avinashpaliwal/Super-SloMo/issues/comments/450703790/reactions","total_count":0,"+1":0,"-1":0,"laugh":0,"hooray":0,"confused":0,"heart":0,"rocket":0,"eyes":0},"performed_via_github_app":null,"event":"commented","actor":{"login":"ybabs","id":29642663,"node_id":"MDQ6VXNlcjI5NjQyNjYz","avatar_url":"https://avatars.githubusercontent.com/u/29642663?v=4","gravatar_id":"","url":"https://api.github.com/users/ybabs","html_url":"https://github.com/ybabs","followers_url":"https://api.github.com/users/ybabs/followers","following_url":"https://api.github.com/users/ybabs/following{/other_user}","gists_url":"https://api.github.com/users/ybabs/gists{/gist_id}","starred_url":"https://api.github.com/users/ybabs/starred{/owner}{/repo}","subscriptions_url":"https://api.github.com/users/ybabs/subscriptions","organizations_url":"https://api.github.com/users/ybabs/orgs","repos_url":"https://api.github.com/users/ybabs/repos","events_url":"https://api.github.com/users/ybabs/events{/privacy}","received_events_url":"https://api.github.com/users/ybabs/received_events","type":"User","site_admin":false}},{"url":"https://api.github.com/repos/avinashpaliwal/Super-SloMo/issues/comments/450792322","html_url":"https://github.com/avinashpaliwal/Super-SloMo/issues/7#issuecomment-450792322","issue_url":"https://api.github.com/repos/avinashpaliwal/Super-SloMo/issues/7","id":450792322,"node_id":"MDEyOklzc3VlQ29tbWVudDQ1MDc5MjMyMg==","user":{"login":"YaoooLiang","id":38717829,"node_id":"MDQ6VXNlcjM4NzE3ODI5","avatar_url":"https://avatars.githubusercontent.com/u/38717829?v=4","gravatar_id":"","url":"https://api.github.com/users/YaoooLiang","html_url":"https://github.com/YaoooLiang","followers_url":"https://api.github.com/users/YaoooLiang/followers","following_url":"https://api.github.com/users/YaoooLiang/following{/other_user}","gists_url":"https://api.github.com/users/YaoooLiang/gists{/gist_id}","starred_url":"https://api.github.com/users/YaoooLiang/starred{/owner}{/repo}","subscriptions_url":"https://api.github.com/users/YaoooLiang/subscriptions","organizations_url":"https://api.github.com/users/YaoooLiang/orgs","repos_url":"https://api.github.com/users/YaoooLiang/repos","events_url":"https://api.github.com/users/YaoooLiang/events{/privacy}","received_events_url":"https://api.github.com/users/YaoooLiang/received_events","type":"User","site_admin":false},"created_at":"2019-01-02T06:10:56Z","updated_at":"2019-01-02T06:10:56Z","author_association":"NONE","body":"Hi, @avinashpaliwal @InterestingWalrus \r\nWhen I run the command below, the interpolation results are all copies of the previous frame.This is also found in other tests of video.   Any ideas why this is?\r\n\r\n\r\n`python video_to_slomo.py --video misc/original.gif  --sf 2 --checkpoint ./SuperSloMo.ckpt --fps 30 --output videos/out_gif.mp4`","reactions":{"url":"https://api.github.com/repos/avinashpaliwal/Super-SloMo/issues/comments/450792322/reactions","total_count":0,"+1":0,"-1":0,"laugh":0,"hooray":0,"confused":0,"heart":0,"rocket":0,"eyes":0},"performed_via_github_app":null,"event":"commented","actor":{"login":"YaoooLiang","id":38717829,"node_id":"MDQ6VXNlcjM4NzE3ODI5","avatar_url":"https://avatars.githubusercontent.com/u/38717829?v=4","gravatar_id":"","url":"https://api.github.com/users/YaoooLiang","html_url":"https://github.com/YaoooLiang","followers_url":"https://api.github.com/users/YaoooLiang/followers","following_url":"https://api.github.com/users/YaoooLiang/following{/other_user}","gists_url":"https://api.github.com/users/YaoooLiang/gists{/gist_id}","starred_url":"https://api.github.com/users/YaoooLiang/starred{/owner}{/repo}","subscriptions_url":"https://api.github.com/users/YaoooLiang/subscriptions","organizations_url":"https://api.github.com/users/YaoooLiang/orgs","repos_url":"https://api.github.com/users/YaoooLiang/repos","events_url":"https://api.github.com/users/YaoooLiang/events{/privacy}","received_events_url":"https://api.github.com/users/YaoooLiang/received_events","type":"User","site_admin":false}},{"id":2049798373,"node_id":"MDE0Ok1lbnRpb25lZEV2ZW50MjA0OTc5ODM3Mw==","url":"https://api.github.com/repos/avinashpaliwal/Super-SloMo/issues/events/2049798373","actor":{"login":"ybabs","id":29642663,"node_id":"MDQ6VXNlcjI5NjQyNjYz","avatar_url":"https://avatars.githubusercontent.com/u/29642663?v=4","gravatar_id":"","url":"https://api.github.com/users/ybabs","html_url":"https://github.com/ybabs","followers_url":"https://api.github.com/users/ybabs/followers","following_url":"https://api.github.com/users/ybabs/following{/other_user}","gists_url":"https://api.github.com/users/ybabs/gists{/gist_id}","starred_url":"https://api.github.com/users/ybabs/starred{/owner}{/repo}","subscriptions_url":"https://api.github.com/users/ybabs/subscriptions","organizations_url":"https://api.github.com/users/ybabs/orgs","repos_url":"https://api.github.com/users/ybabs/repos","events_url":"https://api.github.com/users/ybabs/events{/privacy}","received_events_url":"https://api.github.com/users/ybabs/received_events","type":"User","site_admin":false},"event":"mentioned","commit_id":null,"commit_url":null,"created_at":"2019-01-02T06:10:56Z","performed_via_github_app":null},{"id":2049798374,"node_id":"MDE1OlN1YnNjcmliZWRFdmVudDIwNDk3OTgzNzQ=","url":"https://api.github.com/repos/avinashpaliwal/Super-SloMo/issues/events/2049798374","actor":{"login":"ybabs","id":29642663,"node_id":"MDQ6VXNlcjI5NjQyNjYz","avatar_url":"https://avatars.githubusercontent.com/u/29642663?v=4","gravatar_id":"","url":"https://api.github.com/users/ybabs","html_url":"https://github.com/ybabs","followers_url":"https://api.github.com/users/ybabs/followers","following_url":"https://api.github.com/users/ybabs/following{/other_user}","gists_url":"https://api.github.com/users/ybabs/gists{/gist_id}","starred_url":"https://api.github.com/users/ybabs/starred{/owner}{/repo}","subscriptions_url":"https://api.github.com/users/ybabs/subscriptions","organizations_url":"https://api.github.com/users/ybabs/orgs","repos_url":"https://api.github.com/users/ybabs/repos","events_url":"https://api.github.com/users/ybabs/events{/privacy}","received_events_url":"https://api.github.com/users/ybabs/received_events","type":"User","site_admin":false},"event":"subscribed","commit_id":null,"commit_url":null,"created_at":"2019-01-02T06:10:56Z","performed_via_github_app":null},{"id":2049798376,"node_id":"MDE0Ok1lbnRpb25lZEV2ZW50MjA0OTc5ODM3Ng==","url":"https://api.github.com/repos/avinashpaliwal/Super-SloMo/issues/events/2049798376","actor":{"login":"avinashpaliwal","id":43282710,"node_id":"MDQ6VXNlcjQzMjgyNzEw","avatar_url":"https://avatars.githubusercontent.com/u/43282710?v=4","gravatar_id":"","url":"https://api.github.com/users/avinashpaliwal","html_url":"https://github.com/avinashpaliwal","followers_url":"https://api.github.com/users/avinashpaliwal/followers","following_url":"https://api.github.com/users/avinashpaliwal/following{/other_user}","gists_url":"https://api.github.com/users/avinashpaliwal/gists{/gist_id}","starred_url":"https://api.github.com/users/avinashpaliwal/starred{/owner}{/repo}","subscriptions_url":"https://api.github.com/users/avinashpaliwal/subscriptions","organizations_url":"https://api.github.com/users/avinashpaliwal/orgs","repos_url":"https://api.github.com/users/avinashpaliwal/repos","events_url":"https://api.github.com/users/avinashpaliwal/events{/privacy}","received_events_url":"https://api.github.com/users/avinashpaliwal/received_events","type":"User","site_admin":false},"event":"mentioned","commit_id":null,"commit_url":null,"created_at":"2019-01-02T06:10:56Z","performed_via_github_app":null},{"id":2049798377,"node_id":"MDE1OlN1YnNjcmliZWRFdmVudDIwNDk3OTgzNzc=","url":"https://api.github.com/repos/avinashpaliwal/Super-SloMo/issues/events/2049798377","actor":{"login":"avinashpaliwal","id":43282710,"node_id":"MDQ6VXNlcjQzMjgyNzEw","avatar_url":"https://avatars.githubusercontent.com/u/43282710?v=4","gravatar_id":"","url":"https://api.github.com/users/avinashpaliwal","html_url":"https://github.com/avinashpaliwal","followers_url":"https://api.github.com/users/avinashpaliwal/followers","following_url":"https://api.github.com/users/avinashpaliwal/following{/other_user}","gists_url":"https://api.github.com/users/avinashpaliwal/gists{/gist_id}","starred_url":"https://api.github.com/users/avinashpaliwal/starred{/owner}{/repo}","subscriptions_url":"https://api.github.com/users/avinashpaliwal/subscriptions","organizations_url":"https://api.github.com/users/avinashpaliwal/orgs","repos_url":"https://api.github.com/users/avinashpaliwal/repos","events_url":"https://api.github.com/users/avinashpaliwal/events{/privacy}","received_events_url":"https://api.github.com/users/avinashpaliwal/received_events","type":"User","site_admin":false},"event":"subscribed","commit_id":null,"commit_url":null,"created_at":"2019-01-02T06:10:56Z","performed_via_github_app":null},{"url":"https://api.github.com/repos/avinashpaliwal/Super-SloMo/issues/comments/450794129","html_url":"https://github.com/avinashpaliwal/Super-SloMo/issues/7#issuecomment-450794129","issue_url":"https://api.github.com/repos/avinashpaliwal/Super-SloMo/issues/7","id":450794129,"node_id":"MDEyOklzc3VlQ29tbWVudDQ1MDc5NDEyOQ==","user":{"login":"avinashpaliwal","id":43282710,"node_id":"MDQ6VXNlcjQzMjgyNzEw","avatar_url":"https://avatars.githubusercontent.com/u/43282710?v=4","gravatar_id":"","url":"https://api.github.com/users/avinashpaliwal","html_url":"https://github.com/avinashpaliwal","followers_url":"https://api.github.com/users/avinashpaliwal/followers","following_url":"https://api.github.com/users/avinashpaliwal/following{/other_user}","gists_url":"https://api.github.com/users/avinashpaliwal/gists{/gist_id}","starred_url":"https://api.github.com/users/avinashpaliwal/starred{/owner}{/repo}","subscriptions_url":"https://api.github.com/users/avinashpaliwal/subscriptions","organizations_url":"https://api.github.com/users/avinashpaliwal/orgs","repos_url":"https://api.github.com/users/avinashpaliwal/repos","events_url":"https://api.github.com/users/avinashpaliwal/events{/privacy}","received_events_url":"https://api.github.com/users/avinashpaliwal/received_events","type":"User","site_admin":false},"created_at":"2019-01-02T06:31:39Z","updated_at":"2019-01-02T06:31:39Z","author_association":"OWNER","body":"Can you post more details. Like cmd/terminal output of script. Post some example input and output video as well. Just to clarify, you are getting output frames where every interpolated frame is the copy of the original frame before it?","reactions":{"url":"https://api.github.com/repos/avinashpaliwal/Super-SloMo/issues/comments/450794129/reactions","total_count":0,"+1":0,"-1":0,"laugh":0,"hooray":0,"confused":0,"heart":0,"rocket":0,"eyes":0},"performed_via_github_app":null,"event":"commented","actor":{"login":"avinashpaliwal","id":43282710,"node_id":"MDQ6VXNlcjQzMjgyNzEw","avatar_url":"https://avatars.githubusercontent.com/u/43282710?v=4","gravatar_id":"","url":"https://api.github.com/users/avinashpaliwal","html_url":"https://github.com/avinashpaliwal","followers_url":"https://api.github.com/users/avinashpaliwal/followers","following_url":"https://api.github.com/users/avinashpaliwal/following{/other_user}","gists_url":"https://api.github.com/users/avinashpaliwal/gists{/gist_id}","starred_url":"https://api.github.com/users/avinashpaliwal/starred{/owner}{/repo}","subscriptions_url":"https://api.github.com/users/avinashpaliwal/subscriptions","organizations_url":"https://api.github.com/users/avinashpaliwal/orgs","repos_url":"https://api.github.com/users/avinashpaliwal/repos","events_url":"https://api.github.com/users/avinashpaliwal/events{/privacy}","received_events_url":"https://api.github.com/users/avinashpaliwal/received_events","type":"User","site_admin":false}},{"url":"https://api.github.com/repos/avinashpaliwal/Super-SloMo/issues/comments/450794822","html_url":"https://github.com/avinashpaliwal/Super-SloMo/issues/7#issuecomment-450794822","issue_url":"https://api.github.com/repos/avinashpaliwal/Super-SloMo/issues/7","id":450794822,"node_id":"MDEyOklzc3VlQ29tbWVudDQ1MDc5NDgyMg==","user":{"login":"YaoooLiang","id":38717829,"node_id":"MDQ6VXNlcjM4NzE3ODI5","avatar_url":"https://avatars.githubusercontent.com/u/38717829?v=4","gravatar_id":"","url":"https://api.github.com/users/YaoooLiang","html_url":"https://github.com/YaoooLiang","followers_url":"https://api.github.com/users/YaoooLiang/followers","following_url":"https://api.github.com/users/YaoooLiang/following{/other_user}","gists_url":"https://api.github.com/users/YaoooLiang/gists{/gist_id}","starred_url":"https://api.github.com/users/YaoooLiang/starred{/owner}{/repo}","subscriptions_url":"https://api.github.com/users/YaoooLiang/subscriptions","organizations_url":"https://api.github.com/users/YaoooLiang/orgs","repos_url":"https://api.github.com/users/YaoooLiang/repos","events_url":"https://api.github.com/users/YaoooLiang/events{/privacy}","received_events_url":"https://api.github.com/users/YaoooLiang/received_events","type":"User","site_admin":false},"created_at":"2019-01-02T06:38:58Z","updated_at":"2019-01-02T06:38:58Z","author_association":"NONE","body":"This is my output after running the script:\r\n\r\n[root@7a382a96-08ca-454d-b42c-d1a554518421 Super-SloMo]# python video_to_slomo.py --video misc/original.gif  --sf 2 --checkpoint ./SuperSloMo.ckpt --fps 30 --output videos/out_gif.mp4\r\nffmpeg -i misc/original.gif -vsync 0 -qscale:v 2 tmpSuperSloMo/input/%06d.jpg\r\nffmpeg version 2.6.8 Copyright (c) 2000-2016 the FFmpeg developers\r\n  built with gcc 4.8.5 (GCC) 20150623 (Red Hat 4.8.5-4)\r\n  configuration: --prefix=/usr --bindir=/usr/bin --datadir=/usr/share/ffmpeg --incdir=/usr/include/ffmpeg --libdir=/usr/lib64 --mandir=/usr/share/man --arch=x86_64 --optflags='-O2 -g -pipe -Wall -Wp,-D_FORTIFY_SOURCE=2 -fexceptions -fstack-protector-strong --param=ssp-buffer-size=4 -grecord-gcc-switches -m64 -mtune=generic' --enable-bzlib --disable-crystalhd --enable-gnutls --enable-ladspa --enable-libass --enable-libcdio --enable-libdc1394 --enable-libfaac --enable-nonfree --enable-libfdk-aac --enable-nonfree --disable-indev=jack --enable-libfreetype --enable-libgsm --enable-libmp3lame --enable-openal --enable-libopenjpeg --enable-libopus --enable-libpulse --enable-libschroedinger --enable-libsoxr --enable-libspeex --enable-libtheora --enable-libvorbis --enable-libv4l2 --enable-libx264 --enable-libx265 --enable-libxvid --enable-x11grab --enable-avfilter --enable-avresample --enable-postproc --enable-pthreads --disable-static --enable-shared --enable-gpl --disable-debug --disable-stripping --shlibdir=/usr/lib64 --enable-runtime-cpudetect\r\n  libavutil      54. 20.100 / 54. 20.100\r\n  libavcodec     56. 26.100 / 56. 26.100\r\n  libavformat    56. 25.101 / 56. 25.101\r\n  libavdevice    56.  4.100 / 56.  4.100\r\n  libavfilter     5. 11.102 /  5. 11.102\r\n  libavresample   2.  1.  0 /  2.  1.  0\r\n  libswscale      3.  1.101 /  3.  1.101\r\n  libswresample   1.  1.100 /  1.  1.100\r\n  libpostproc    53.  3.100 / 53.  3.100\r\nInput #0, gif, from 'misc/original.gif':\r\n  Duration: N/A, bitrate: N/A\r\n    Stream #0:0: Video: gif, bgra, 480x270, 25 fps, 25 tbr, 100 tbn, 100 tbc\r\n[swscaler @ 0x13b97e0] deprecated pixel format used, make sure you did set range correctly\r\nOutput #0, image2, to 'tmpSuperSloMo/input/%06d.jpg':\r\n  Metadata:\r\n    encoder         : Lavf56.25.101\r\n    Stream #0:0: Video: mjpeg, yuvj444p(pc), 480x270, q=2-31, 200 kb/s, 25 fps, 25 tbn, 25 tbc\r\n    Metadata:\r\n      encoder         : Lavc56.26.100 mjpeg\r\nStream mapping:\r\n  Stream #0:0 -> #0:0 (gif (native) -> mjpeg (native))\r\nPress [q] to stop, [?] for help\r\nframe=   31 fps=0.0 q=0.0 Lsize=N/A time=00:00:01.24 bitrate=N/A    \r\nvideo:1906kB audio:0kB subtitle:0kB other streams:0kB global headers:0kB muxing overhead: unknown\r\n/usr/local/lib/python2.7/site-packages/torch/nn/functional.py:1961: UserWarning: Default upsampling behavior when mode=bilinear is changed to align_corners=False since 0.4.0. Please specify align_corners=True if the old behavior is desired. See the documentation of nn.Upsample for details.\r\n  \"See the documentation of nn.Upsample for details.\".format(mode))\r\n/usr/local/lib/python2.7/site-packages/torch/nn/functional.py:1006: UserWarning: nn.functional.sigmoid is deprecated. Use torch.sigmoid instead.\r\n  warnings.warn(\"nn.functional.sigmoid is deprecated. Use torch.sigmoid instead.\")\r\nffmpeg -r 30.0 -i tmpSuperSloMo/output/%d.jpg -qscale:v 2 videos/out_gif.mp4\r\nffmpeg version 2.6.8 Copyright (c) 2000-2016 the FFmpeg developers\r\n  built with gcc 4.8.5 (GCC) 20150623 (Red Hat 4.8.5-4)\r\n  configuration: --prefix=/usr --bindir=/usr/bin --datadir=/usr/share/ffmpeg --incdir=/usr/include/ffmpeg --libdir=/usr/lib64 --mandir=/usr/share/man --arch=x86_64 --optflags='-O2 -g -pipe -Wall -Wp,-D_FORTIFY_SOURCE=2 -fexceptions -fstack-protector-strong --param=ssp-buffer-size=4 -grecord-gcc-switches -m64 -mtune=generic' --enable-bzlib --disable-crystalhd --enable-gnutls --enable-ladspa --enable-libass --enable-libcdio --enable-libdc1394 --enable-libfaac --enable-nonfree --enable-libfdk-aac --enable-nonfree --disable-indev=jack --enable-libfreetype --enable-libgsm --enable-libmp3lame --enable-openal --enable-libopenjpeg --enable-libopus --enable-libpulse --enable-libschroedinger --enable-libsoxr --enable-libspeex --enable-libtheora --enable-libvorbis --enable-libv4l2 --enable-libx264 --enable-libx265 --enable-libxvid --enable-x11grab --enable-avfilter --enable-avresample --enable-postproc --enable-pthreads --disable-static --enable-shared --enable-gpl --disable-debug --disable-stripping --shlibdir=/usr/lib64 --enable-runtime-cpudetect\r\n  libavutil      54. 20.100 / 54. 20.100\r\n  libavcodec     56. 26.100 / 56. 26.100\r\n  libavformat    56. 25.101 / 56. 25.101\r\n  libavdevice    56.  4.100 / 56.  4.100\r\n  libavfilter     5. 11.102 /  5. 11.102\r\n  libavresample   2.  1.  0 /  2.  1.  0\r\n  libswscale      3.  1.101 /  3.  1.101\r\n  libswresample   1.  1.100 /  1.  1.100\r\n  libpostproc    53.  3.100 / 53.  3.100\r\n[mjpeg @ 0x1fe2e20] Changeing bps to 8\r\nInput #0, image2, from 'tmpSuperSloMo/output/%d.jpg':\r\n  Duration: 00:00:02.40, start: 0.000000, bitrate: N/A\r\n    Stream #0:0: Video: mjpeg, yuvj420p(pc, bt470bg/unknown/unknown), 480x270 [SAR 1:1 DAR 16:9], 25 fps, 25 tbr, 25 tbn, 25 tbc\r\nFile 'videos/out_gif.mp4' already exists. Overwrite ? [y/N] y\r\nNo pixel format specified, yuvj420p for H.264 encoding chosen.\r\nUse -pix_fmt yuv420p for compatibility with outdated media players.\r\n[libx264 @ 0x2011300] -qscale is ignored, -crf is recommended.\r\n[libx264 @ 0x2011300] using SAR=1/1\r\n[libx264 @ 0x2011300] using cpu capabilities: MMX2 SSE2Fast SSSE3 SSE4.2 AVX AVX2 FMA3 LZCNT BMI2\r\n[libx264 @ 0x2011300] profile High, level 2.1\r\n[libx264 @ 0x2011300] 264 - core 142 r2495 6a301b6 - H.264/MPEG-4 AVC codec - Copyleft 2003-2014 - http://www.videolan.org/x264.html - options: cabac=1 ref=3 deblock=1:0:0 analyse=0x3:0x113 me=hex subme=7 psy=1 psy_rd=1.00:0.00 mixed_ref=1 me_range=16 chroma_me=1 trellis=1 8x8dct=1 cqm=0 deadzone=21,11 fast_pskip=1 chroma_qp_offset=-2 threads=72 lookahead_threads=2 sliced_threads=0 nr=0 decimate=1 interlaced=0 bluray_compat=0 constrained_intra=0 bframes=3 b_pyramid=2 b_adapt=1 b_bias=0 direct=1 weightb=1 open_gop=0 weightp=2 keyint=250 keyint_min=25 scenecut=40 intra_refresh=0 rc_lookahead=40 rc=crf mbtree=1 crf=23.0 qcomp=0.60 qpmin=0 qpmax=69 qpstep=4 ip_ratio=1.40 aq=1:1.00\r\nOutput #0, mp4, to 'videos/out_gif.mp4':\r\n  Metadata:\r\n    encoder         : Lavf56.25.101\r\n    Stream #0:0: Video: h264 (libx264) ([33][0][0][0] / 0x0021), yuvj420p(pc), 480x270 [SAR 1:1 DAR 16:9], q=-1--1, 30 fps, 15360 tbn, 30 tbc\r\n    Metadata:\r\n      encoder         : Lavc56.26.100 libx264\r\nStream mapping:\r\n  Stream #0:0 -> #0:0 (mjpeg (native) -> h264 (libx264))\r\nPress [q] to stop, [?] for help\r\nframe=   60 fps=0.0 q=-1.0 Lsize=     322kB time=00:00:01.93 bitrate=1362.6kbits/s    \r\nvideo:320kB audio:0kB subtitle:0kB other streams:0kB global headers:0kB muxing overhead: 0.474768%\r\n[libx264 @ 0x2011300] frame I:1     Avg QP:26.12  size: 21812\r\n[libx264 @ 0x2011300] frame P:30    Avg QP:26.46  size:  9479\r\n[libx264 @ 0x2011300] frame B:29    Avg QP:30.68  size:   719\r\n[libx264 @ 0x2011300] consecutive B-frames:  3.3% 96.7%  0.0%  0.0%\r\n[libx264 @ 0x2011300] mb I  I16..4:  0.0% 98.0%  2.0%\r\n[libx264 @ 0x2011300] mb P  I16..4:  0.0%  3.2%  0.3%  P16..4: 31.3% 35.2% 26.2%  0.0%  0.0%    skip: 3.7%\r\n[libx264 @ 0x2011300] mb B  I16..4:  0.0%  0.0%  0.0%  B16..8: 45.5%  5.4%  1.3%  direct: 1.3%  skip:46.4%  L0:59.2% L1: 1.5% BI:39.3%\r\n[libx264 @ 0x2011300] 8x8 transform intra:94.5% inter:78.5%\r\n[libx264 @ 0x2011300] coded y,uvDC,uvAC intra: 97.4% 80.9% 24.7% inter: 38.8% 22.3% 2.5%\r\n[libx264 @ 0x2011300] i16 v,h,dc,p:  0% 100%  0%  0%\r\n[libx264 @ 0x2011300] i8 v,h,dc,ddl,ddr,vr,hd,vl,hu: 13% 20% 25%  6%  5%  6%  5%  8% 11%\r\n[libx264 @ 0x2011300] i4 v,h,dc,ddl,ddr,vr,hd,vl,hu: 13% 39% 13%  7%  6%  5%  4%  7%  6%\r\n[libx264 @ 0x2011300] i8c dc,h,v,p: 61% 20% 16%  3%\r\n[libx264 @ 0x2011300] Weighted P-Frames: Y:3.3% UV:0.0%\r\n[libx264 @ 0x2011300] ref P L0: 68.7% 16.1% 12.0%  3.0%  0.1%\r\n[libx264 @ 0x2011300] ref B L0: 99.8%  0.2%\r\n[libx264 @ 0x2011300] kb/s:1308.20","reactions":{"url":"https://api.github.com/repos/avinashpaliwal/Super-SloMo/issues/comments/450794822/reactions","total_count":0,"+1":0,"-1":0,"laugh":0,"hooray":0,"confused":0,"heart":0,"rocket":0,"eyes":0},"performed_via_github_app":null,"event":"commented","actor":{"login":"YaoooLiang","id":38717829,"node_id":"MDQ6VXNlcjM4NzE3ODI5","avatar_url":"https://avatars.githubusercontent.com/u/38717829?v=4","gravatar_id":"","url":"https://api.github.com/users/YaoooLiang","html_url":"https://github.com/YaoooLiang","followers_url":"https://api.github.com/users/YaoooLiang/followers","following_url":"https://api.github.com/users/YaoooLiang/following{/other_user}","gists_url":"https://api.github.com/users/YaoooLiang/gists{/gist_id}","starred_url":"https://api.github.com/users/YaoooLiang/starred{/owner}{/repo}","subscriptions_url":"https://api.github.com/users/YaoooLiang/subscriptions","organizations_url":"https://api.github.com/users/YaoooLiang/orgs","repos_url":"https://api.github.com/users/YaoooLiang/repos","events_url":"https://api.github.com/users/YaoooLiang/events{/privacy}","received_events_url":"https://api.github.com/users/YaoooLiang/received_events","type":"User","site_admin":false}},{"url":"https://api.github.com/repos/avinashpaliwal/Super-SloMo/issues/comments/450795144","html_url":"https://github.com/avinashpaliwal/Super-SloMo/issues/7#issuecomment-450795144","issue_url":"https://api.github.com/repos/avinashpaliwal/Super-SloMo/issues/7","id":450795144,"node_id":"MDEyOklzc3VlQ29tbWVudDQ1MDc5NTE0NA==","user":{"login":"YaoooLiang","id":38717829,"node_id":"MDQ6VXNlcjM4NzE3ODI5","avatar_url":"https://avatars.githubusercontent.com/u/38717829?v=4","gravatar_id":"","url":"https://api.github.com/users/YaoooLiang","html_url":"https://github.com/YaoooLiang","followers_url":"https://api.github.com/users/YaoooLiang/followers","following_url":"https://api.github.com/users/YaoooLiang/following{/other_user}","gists_url":"https://api.github.com/users/YaoooLiang/gists{/gist_id}","starred_url":"https://api.github.com/users/YaoooLiang/starred{/owner}{/repo}","subscriptions_url":"https://api.github.com/users/YaoooLiang/subscriptions","organizations_url":"https://api.github.com/users/YaoooLiang/orgs","repos_url":"https://api.github.com/users/YaoooLiang/repos","events_url":"https://api.github.com/users/YaoooLiang/events{/privacy}","received_events_url":"https://api.github.com/users/YaoooLiang/received_events","type":"User","site_admin":false},"created_at":"2019-01-02T06:42:25Z","updated_at":"2019-01-02T06:47:52Z","author_association":"NONE","body":"Input video is your original gif ; this is my output of video :[out_gif.zip](https://github.com/avinashpaliwal/Super-SloMo/files/2720033/out_gif.zip)\r\n\r\n\r\n\r\n","reactions":{"url":"https://api.github.com/repos/avinashpaliwal/Super-SloMo/issues/comments/450795144/reactions","total_count":0,"+1":0,"-1":0,"laugh":0,"hooray":0,"confused":0,"heart":0,"rocket":0,"eyes":0},"performed_via_github_app":null,"event":"commented","actor":{"login":"YaoooLiang","id":38717829,"node_id":"MDQ6VXNlcjM4NzE3ODI5","avatar_url":"https://avatars.githubusercontent.com/u/38717829?v=4","gravatar_id":"","url":"https://api.github.com/users/YaoooLiang","html_url":"https://github.com/YaoooLiang","followers_url":"https://api.github.com/users/YaoooLiang/followers","following_url":"https://api.github.com/users/YaoooLiang/following{/other_user}","gists_url":"https://api.github.com/users/YaoooLiang/gists{/gist_id}","starred_url":"https://api.github.com/users/YaoooLiang/starred{/owner}{/repo}","subscriptions_url":"https://api.github.com/users/YaoooLiang/subscriptions","organizations_url":"https://api.github.com/users/YaoooLiang/orgs","repos_url":"https://api.github.com/users/YaoooLiang/repos","events_url":"https://api.github.com/users/YaoooLiang/events{/privacy}","received_events_url":"https://api.github.com/users/YaoooLiang/received_events","type":"User","site_admin":false}},{"url":"https://api.github.com/repos/avinashpaliwal/Super-SloMo/issues/comments/450799575","html_url":"https://github.com/avinashpaliwal/Super-SloMo/issues/7#issuecomment-450799575","issue_url":"https://api.github.com/repos/avinashpaliwal/Super-SloMo/issues/7","id":450799575,"node_id":"MDEyOklzc3VlQ29tbWVudDQ1MDc5OTU3NQ==","user":{"login":"avinashpaliwal","id":43282710,"node_id":"MDQ6VXNlcjQzMjgyNzEw","avatar_url":"https://avatars.githubusercontent.com/u/43282710?v=4","gravatar_id":"","url":"https://api.github.com/users/avinashpaliwal","html_url":"https://github.com/avinashpaliwal","followers_url":"https://api.github.com/users/avinashpaliwal/followers","following_url":"https://api.github.com/users/avinashpaliwal/following{/other_user}","gists_url":"https://api.github.com/users/avinashpaliwal/gists{/gist_id}","starred_url":"https://api.github.com/users/avinashpaliwal/starred{/owner}{/repo}","subscriptions_url":"https://api.github.com/users/avinashpaliwal/subscriptions","organizations_url":"https://api.github.com/users/avinashpaliwal/orgs","repos_url":"https://api.github.com/users/avinashpaliwal/repos","events_url":"https://api.github.com/users/avinashpaliwal/events{/privacy}","received_events_url":"https://api.github.com/users/avinashpaliwal/received_events","type":"User","site_admin":false},"created_at":"2019-01-02T07:23:16Z","updated_at":"2019-01-02T07:23:16Z","author_association":"OWNER","body":"I am getting correct results on my end. The video you have posted has no interpolated frames, they look like exact copies of previous frames. I haven't tested the whole thing on linux (I am using windows), so I will try that. In the mean time try running it again with configuration pytorch 0.4.1, python 3.6. Comment out this line in the [script](https://github.com/avinashpaliwal/Super-SloMo/blob/4af6602e34cea6a30e7e7cf56722aead8caa5e1d/video_to_slomo.py#L197) and check the hidden folder tmpSuperSloMo for the generated output frames. There will be a resolution mismatch which I am fixing, so ignore that.","reactions":{"url":"https://api.github.com/repos/avinashpaliwal/Super-SloMo/issues/comments/450799575/reactions","total_count":0,"+1":0,"-1":0,"laugh":0,"hooray":0,"confused":0,"heart":0,"rocket":0,"eyes":0},"performed_via_github_app":null,"event":"commented","actor":{"login":"avinashpaliwal","id":43282710,"node_id":"MDQ6VXNlcjQzMjgyNzEw","avatar_url":"https://avatars.githubusercontent.com/u/43282710?v=4","gravatar_id":"","url":"https://api.github.com/users/avinashpaliwal","html_url":"https://github.com/avinashpaliwal","followers_url":"https://api.github.com/users/avinashpaliwal/followers","following_url":"https://api.github.com/users/avinashpaliwal/following{/other_user}","gists_url":"https://api.github.com/users/avinashpaliwal/gists{/gist_id}","starred_url":"https://api.github.com/users/avinashpaliwal/starred{/owner}{/repo}","subscriptions_url":"https://api.github.com/users/avinashpaliwal/subscriptions","organizations_url":"https://api.github.com/users/avinashpaliwal/orgs","repos_url":"https://api.github.com/users/avinashpaliwal/repos","events_url":"https://api.github.com/users/avinashpaliwal/events{/privacy}","received_events_url":"https://api.github.com/users/avinashpaliwal/received_events","type":"User","site_admin":false}},{"url":"https://api.github.com/repos/avinashpaliwal/Super-SloMo/issues/comments/450818694","html_url":"https://github.com/avinashpaliwal/Super-SloMo/issues/7#issuecomment-450818694","issue_url":"https://api.github.com/repos/avinashpaliwal/Super-SloMo/issues/7","id":450818694,"node_id":"MDEyOklzc3VlQ29tbWVudDQ1MDgxODY5NA==","user":{"login":"ybabs","id":29642663,"node_id":"MDQ6VXNlcjI5NjQyNjYz","avatar_url":"https://avatars.githubusercontent.com/u/29642663?v=4","gravatar_id":"","url":"https://api.github.com/users/ybabs","html_url":"https://github.com/ybabs","followers_url":"https://api.github.com/users/ybabs/followers","following_url":"https://api.github.com/users/ybabs/following{/other_user}","gists_url":"https://api.github.com/users/ybabs/gists{/gist_id}","starred_url":"https://api.github.com/users/ybabs/starred{/owner}{/repo}","subscriptions_url":"https://api.github.com/users/ybabs/subscriptions","organizations_url":"https://api.github.com/users/ybabs/orgs","repos_url":"https://api.github.com/users/ybabs/repos","events_url":"https://api.github.com/users/ybabs/events{/privacy}","received_events_url":"https://api.github.com/users/ybabs/received_events","type":"User","site_admin":false},"created_at":"2019-01-02T09:32:03Z","updated_at":"2019-01-02T09:32:03Z","author_association":"NONE","body":"@YaoooLiang @avinashpaliwal, if I don't specify the ffmpeg directory, the script doesn't run. Not sure why it's running for you. Also you seem to be using an old version of ffmpeg. Try updating ffmpeg maybe?","reactions":{"url":"https://api.github.com/repos/avinashpaliwal/Super-SloMo/issues/comments/450818694/reactions","total_count":0,"+1":0,"-1":0,"laugh":0,"hooray":0,"confused":0,"heart":0,"rocket":0,"eyes":0},"performed_via_github_app":null,"event":"commented","actor":{"login":"ybabs","id":29642663,"node_id":"MDQ6VXNlcjI5NjQyNjYz","avatar_url":"https://avatars.githubusercontent.com/u/29642663?v=4","gravatar_id":"","url":"https://api.github.com/users/ybabs","html_url":"https://github.com/ybabs","followers_url":"https://api.github.com/users/ybabs/followers","following_url":"https://api.github.com/users/ybabs/following{/other_user}","gists_url":"https://api.github.com/users/ybabs/gists{/gist_id}","starred_url":"https://api.github.com/users/ybabs/starred{/owner}{/repo}","subscriptions_url":"https://api.github.com/users/ybabs/subscriptions","organizations_url":"https://api.github.com/users/ybabs/orgs","repos_url":"https://api.github.com/users/ybabs/repos","events_url":"https://api.github.com/users/ybabs/events{/privacy}","received_events_url":"https://api.github.com/users/ybabs/received_events","type":"User","site_admin":false}},{"id":2050000803,"node_id":"MDE0Ok1lbnRpb25lZEV2ZW50MjA1MDAwMDgwMw==","url":"https://api.github.com/repos/avinashpaliwal/Super-SloMo/issues/events/2050000803","actor":{"login":"YaoooLiang","id":38717829,"node_id":"MDQ6VXNlcjM4NzE3ODI5","avatar_url":"https://avatars.githubusercontent.com/u/38717829?v=4","gravatar_id":"","url":"https://api.github.com/users/YaoooLiang","html_url":"https://github.com/YaoooLiang","followers_url":"https://api.github.com/users/YaoooLiang/followers","following_url":"https://api.github.com/users/YaoooLiang/following{/other_user}","gists_url":"https://api.github.com/users/YaoooLiang/gists{/gist_id}","starred_url":"https://api.github.com/users/YaoooLiang/starred{/owner}{/repo}","subscriptions_url":"https://api.github.com/users/YaoooLiang/subscriptions","organizations_url":"https://api.github.com/users/YaoooLiang/orgs","repos_url":"https://api.github.com/users/YaoooLiang/repos","events_url":"https://api.github.com/users/YaoooLiang/events{/privacy}","received_events_url":"https://api.github.com/users/YaoooLiang/received_events","type":"User","site_admin":false},"event":"mentioned","commit_id":null,"commit_url":null,"created_at":"2019-01-02T09:32:03Z","performed_via_github_app":null},{"id":2050000804,"node_id":"MDE1OlN1YnNjcmliZWRFdmVudDIwNTAwMDA4MDQ=","url":"https://api.github.com/repos/avinashpaliwal/Super-SloMo/issues/events/2050000804","actor":{"login":"YaoooLiang","id":38717829,"node_id":"MDQ6VXNlcjM4NzE3ODI5","avatar_url":"https://avatars.githubusercontent.com/u/38717829?v=4","gravatar_id":"","url":"https://api.github.com/users/YaoooLiang","html_url":"https://github.com/YaoooLiang","followers_url":"https://api.github.com/users/YaoooLiang/followers","following_url":"https://api.github.com/users/YaoooLiang/following{/other_user}","gists_url":"https://api.github.com/users/YaoooLiang/gists{/gist_id}","starred_url":"https://api.github.com/users/YaoooLiang/starred{/owner}{/repo}","subscriptions_url":"https://api.github.com/users/YaoooLiang/subscriptions","organizations_url":"https://api.github.com/users/YaoooLiang/orgs","repos_url":"https://api.github.com/users/YaoooLiang/repos","events_url":"https://api.github.com/users/YaoooLiang/events{/privacy}","received_events_url":"https://api.github.com/users/YaoooLiang/received_events","type":"User","site_admin":false},"event":"subscribed","commit_id":null,"commit_url":null,"created_at":"2019-01-02T09:32:03Z","performed_via_github_app":null},{"id":2050000806,"node_id":"MDE0Ok1lbnRpb25lZEV2ZW50MjA1MDAwMDgwNg==","url":"https://api.github.com/repos/avinashpaliwal/Super-SloMo/issues/events/2050000806","actor":{"login":"avinashpaliwal","id":43282710,"node_id":"MDQ6VXNlcjQzMjgyNzEw","avatar_url":"https://avatars.githubusercontent.com/u/43282710?v=4","gravatar_id":"","url":"https://api.github.com/users/avinashpaliwal","html_url":"https://github.com/avinashpaliwal","followers_url":"https://api.github.com/users/avinashpaliwal/followers","following_url":"https://api.github.com/users/avinashpaliwal/following{/other_user}","gists_url":"https://api.github.com/users/avinashpaliwal/gists{/gist_id}","starred_url":"https://api.github.com/users/avinashpaliwal/starred{/owner}{/repo}","subscriptions_url":"https://api.github.com/users/avinashpaliwal/subscriptions","organizations_url":"https://api.github.com/users/avinashpaliwal/orgs","repos_url":"https://api.github.com/users/avinashpaliwal/repos","events_url":"https://api.github.com/users/avinashpaliwal/events{/privacy}","received_events_url":"https://api.github.com/users/avinashpaliwal/received_events","type":"User","site_admin":false},"event":"mentioned","commit_id":null,"commit_url":null,"created_at":"2019-01-02T09:32:03Z","performed_via_github_app":null},{"id":2050000807,"node_id":"MDE1OlN1YnNjcmliZWRFdmVudDIwNTAwMDA4MDc=","url":"https://api.github.com/repos/avinashpaliwal/Super-SloMo/issues/events/2050000807","actor":{"login":"avinashpaliwal","id":43282710,"node_id":"MDQ6VXNlcjQzMjgyNzEw","avatar_url":"https://avatars.githubusercontent.com/u/43282710?v=4","gravatar_id":"","url":"https://api.github.com/users/avinashpaliwal","html_url":"https://github.com/avinashpaliwal","followers_url":"https://api.github.com/users/avinashpaliwal/followers","following_url":"https://api.github.com/users/avinashpaliwal/following{/other_user}","gists_url":"https://api.github.com/users/avinashpaliwal/gists{/gist_id}","starred_url":"https://api.github.com/users/avinashpaliwal/starred{/owner}{/repo}","subscriptions_url":"https://api.github.com/users/avinashpaliwal/subscriptions","organizations_url":"https://api.github.com/users/avinashpaliwal/orgs","repos_url":"https://api.github.com/users/avinashpaliwal/repos","events_url":"https://api.github.com/users/avinashpaliwal/events{/privacy}","received_events_url":"https://api.github.com/users/avinashpaliwal/received_events","type":"User","site_admin":false},"event":"subscribed","commit_id":null,"commit_url":null,"created_at":"2019-01-02T09:32:03Z","performed_via_github_app":null},{"url":"https://api.github.com/repos/avinashpaliwal/Super-SloMo/issues/comments/450827931","html_url":"https://github.com/avinashpaliwal/Super-SloMo/issues/7#issuecomment-450827931","issue_url":"https://api.github.com/repos/avinashpaliwal/Super-SloMo/issues/7","id":450827931,"node_id":"MDEyOklzc3VlQ29tbWVudDQ1MDgyNzkzMQ==","user":{"login":"YaoooLiang","id":38717829,"node_id":"MDQ6VXNlcjM4NzE3ODI5","avatar_url":"https://avatars.githubusercontent.com/u/38717829?v=4","gravatar_id":"","url":"https://api.github.com/users/YaoooLiang","html_url":"https://github.com/YaoooLiang","followers_url":"https://api.github.com/users/YaoooLiang/followers","following_url":"https://api.github.com/users/YaoooLiang/following{/other_user}","gists_url":"https://api.github.com/users/YaoooLiang/gists{/gist_id}","starred_url":"https://api.github.com/users/YaoooLiang/starred{/owner}{/repo}","subscriptions_url":"https://api.github.com/users/YaoooLiang/subscriptions","organizations_url":"https://api.github.com/users/YaoooLiang/orgs","repos_url":"https://api.github.com/users/YaoooLiang/repos","events_url":"https://api.github.com/users/YaoooLiang/events{/privacy}","received_events_url":"https://api.github.com/users/YaoooLiang/received_events","type":"User","site_admin":false},"created_at":"2019-01-02T10:19:00Z","updated_at":"2019-01-02T10:24:18Z","author_association":"NONE","body":"@InterestingWalrus @avinashpaliwal \r\nthe hidden folder tmpSuperSloMo was existed, so ffmpeg worked. I had checked tmpSuperSloMo, the interpolated frames in output had a very little change from previous frame.  the content in tmpSuperSloMo is : \r\n [input.zip](https://github.com/avinashpaliwal/Super-SloMo/files/2720459/input.zip)\r\n [output.zip](https://github.com/avinashpaliwal/Super-SloMo/files/2720457/output.zip)\r\n\r\n\r\n\r\n","reactions":{"url":"https://api.github.com/repos/avinashpaliwal/Super-SloMo/issues/comments/450827931/reactions","total_count":0,"+1":0,"-1":0,"laugh":0,"hooray":0,"confused":0,"heart":0,"rocket":0,"eyes":0},"performed_via_github_app":null,"event":"commented","actor":{"login":"YaoooLiang","id":38717829,"node_id":"MDQ6VXNlcjM4NzE3ODI5","avatar_url":"https://avatars.githubusercontent.com/u/38717829?v=4","gravatar_id":"","url":"https://api.github.com/users/YaoooLiang","html_url":"https://github.com/YaoooLiang","followers_url":"https://api.github.com/users/YaoooLiang/followers","following_url":"https://api.github.com/users/YaoooLiang/following{/other_user}","gists_url":"https://api.github.com/users/YaoooLiang/gists{/gist_id}","starred_url":"https://api.github.com/users/YaoooLiang/starred{/owner}{/repo}","subscriptions_url":"https://api.github.com/users/YaoooLiang/subscriptions","organizations_url":"https://api.github.com/users/YaoooLiang/orgs","repos_url":"https://api.github.com/users/YaoooLiang/repos","events_url":"https://api.github.com/users/YaoooLiang/events{/privacy}","received_events_url":"https://api.github.com/users/YaoooLiang/received_events","type":"User","site_admin":false}},{"id":2050075267,"node_id":"MDE0Ok1lbnRpb25lZEV2ZW50MjA1MDA3NTI2Nw==","url":"https://api.github.com/repos/avinashpaliwal/Super-SloMo/issues/events/2050075267","actor":{"login":"ybabs","id":29642663,"node_id":"MDQ6VXNlcjI5NjQyNjYz","avatar_url":"https://avatars.githubusercontent.com/u/29642663?v=4","gravatar_id":"","url":"https://api.github.com/users/ybabs","html_url":"https://github.com/ybabs","followers_url":"https://api.github.com/users/ybabs/followers","following_url":"https://api.github.com/users/ybabs/following{/other_user}","gists_url":"https://api.github.com/users/ybabs/gists{/gist_id}","starred_url":"https://api.github.com/users/ybabs/starred{/owner}{/repo}","subscriptions_url":"https://api.github.com/users/ybabs/subscriptions","organizations_url":"https://api.github.com/users/ybabs/orgs","repos_url":"https://api.github.com/users/ybabs/repos","events_url":"https://api.github.com/users/ybabs/events{/privacy}","received_events_url":"https://api.github.com/users/ybabs/received_events","type":"User","site_admin":false},"event":"mentioned","commit_id":null,"commit_url":null,"created_at":"2019-01-02T10:19:00Z","performed_via_github_app":null},{"id":2050075268,"node_id":"MDE1OlN1YnNjcmliZWRFdmVudDIwNTAwNzUyNjg=","url":"https://api.github.com/repos/avinashpaliwal/Super-SloMo/issues/events/2050075268","actor":{"login":"ybabs","id":29642663,"node_id":"MDQ6VXNlcjI5NjQyNjYz","avatar_url":"https://avatars.githubusercontent.com/u/29642663?v=4","gravatar_id":"","url":"https://api.github.com/users/ybabs","html_url":"https://github.com/ybabs","followers_url":"https://api.github.com/users/ybabs/followers","following_url":"https://api.github.com/users/ybabs/following{/other_user}","gists_url":"https://api.github.com/users/ybabs/gists{/gist_id}","starred_url":"https://api.github.com/users/ybabs/starred{/owner}{/repo}","subscriptions_url":"https://api.github.com/users/ybabs/subscriptions","organizations_url":"https://api.github.com/users/ybabs/orgs","repos_url":"https://api.github.com/users/ybabs/repos","events_url":"https://api.github.com/users/ybabs/events{/privacy}","received_events_url":"https://api.github.com/users/ybabs/received_events","type":"User","site_admin":false},"event":"subscribed","commit_id":null,"commit_url":null,"created_at":"2019-01-02T10:19:00Z","performed_via_github_app":null},{"id":2050075269,"node_id":"MDE0Ok1lbnRpb25lZEV2ZW50MjA1MDA3NTI2OQ==","url":"https://api.github.com/repos/avinashpaliwal/Super-SloMo/issues/events/2050075269","actor":{"login":"YaoooLiang","id":38717829,"node_id":"MDQ6VXNlcjM4NzE3ODI5","avatar_url":"https://avatars.githubusercontent.com/u/38717829?v=4","gravatar_id":"","url":"https://api.github.com/users/YaoooLiang","html_url":"https://github.com/YaoooLiang","followers_url":"https://api.github.com/users/YaoooLiang/followers","following_url":"https://api.github.com/users/YaoooLiang/following{/other_user}","gists_url":"https://api.github.com/users/YaoooLiang/gists{/gist_id}","starred_url":"https://api.github.com/users/YaoooLiang/starred{/owner}{/repo}","subscriptions_url":"https://api.github.com/users/YaoooLiang/subscriptions","organizations_url":"https://api.github.com/users/YaoooLiang/orgs","repos_url":"https://api.github.com/users/YaoooLiang/repos","events_url":"https://api.github.com/users/YaoooLiang/events{/privacy}","received_events_url":"https://api.github.com/users/YaoooLiang/received_events","type":"User","site_admin":false},"event":"mentioned","commit_id":null,"commit_url":null,"created_at":"2019-01-02T10:19:00Z","performed_via_github_app":null},{"id":2050075270,"node_id":"MDE1OlN1YnNjcmliZWRFdmVudDIwNTAwNzUyNzA=","url":"https://api.github.com/repos/avinashpaliwal/Super-SloMo/issues/events/2050075270","actor":{"login":"YaoooLiang","id":38717829,"node_id":"MDQ6VXNlcjM4NzE3ODI5","avatar_url":"https://avatars.githubusercontent.com/u/38717829?v=4","gravatar_id":"","url":"https://api.github.com/users/YaoooLiang","html_url":"https://github.com/YaoooLiang","followers_url":"https://api.github.com/users/YaoooLiang/followers","following_url":"https://api.github.com/users/YaoooLiang/following{/other_user}","gists_url":"https://api.github.com/users/YaoooLiang/gists{/gist_id}","starred_url":"https://api.github.com/users/YaoooLiang/starred{/owner}{/repo}","subscriptions_url":"https://api.github.com/users/YaoooLiang/subscriptions","organizations_url":"https://api.github.com/users/YaoooLiang/orgs","repos_url":"https://api.github.com/users/YaoooLiang/repos","events_url":"https://api.github.com/users/YaoooLiang/events{/privacy}","received_events_url":"https://api.github.com/users/YaoooLiang/received_events","type":"User","site_admin":false},"event":"subscribed","commit_id":null,"commit_url":null,"created_at":"2019-01-02T10:19:00Z","performed_via_github_app":null},{"id":2050075272,"node_id":"MDE0Ok1lbnRpb25lZEV2ZW50MjA1MDA3NTI3Mg==","url":"https://api.github.com/repos/avinashpaliwal/Super-SloMo/issues/events/2050075272","actor":{"login":"avinashpaliwal","id":43282710,"node_id":"MDQ6VXNlcjQzMjgyNzEw","avatar_url":"https://avatars.githubusercontent.com/u/43282710?v=4","gravatar_id":"","url":"https://api.github.com/users/avinashpaliwal","html_url":"https://github.com/avinashpaliwal","followers_url":"https://api.github.com/users/avinashpaliwal/followers","following_url":"https://api.github.com/users/avinashpaliwal/following{/other_user}","gists_url":"https://api.github.com/users/avinashpaliwal/gists{/gist_id}","starred_url":"https://api.github.com/users/avinashpaliwal/starred{/owner}{/repo}","subscriptions_url":"https://api.github.com/users/avinashpaliwal/subscriptions","organizations_url":"https://api.github.com/users/avinashpaliwal/orgs","repos_url":"https://api.github.com/users/avinashpaliwal/repos","events_url":"https://api.github.com/users/avinashpaliwal/events{/privacy}","received_events_url":"https://api.github.com/users/avinashpaliwal/received_events","type":"User","site_admin":false},"event":"mentioned","commit_id":null,"commit_url":null,"created_at":"2019-01-02T10:19:00Z","performed_via_github_app":null}]